<?xml version="1.0" standalone="no"?>
<!DOCTYPE svg PUBLIC "-//W3C//DTD SVG 20010904//EN"
        "http://www.w3.org/TR/2001/REC-SVG-20010904/DTD/svg10.dtd">
<svg version="1.0" xmlns="http://www.w3.org/2000/svg"
     width="460.000000pt" height="460.000000pt" viewBox="0 0 460.000000 460.000000"
     preserveAspectRatio="xMidYMid meet">
    <g transform="translate(0.000000,460.000000) scale(0.100000,-0.100000)"
       fill="#000000" stroke="none">
        <path d="M2036 4589 c-104 -8 -246 -33 -468 -83 -136 -31 -439 -174 -593 -280
-55 -37 -104 -73 -110 -80 -5 -6 -30 -24 -54 -41 -112 -76 -305 -291 -442
-491 -48 -70 -199 -356 -199 -377 0 -4 -11 -30 -24 -59 -27 -60 -36 -89 -70
-238 -61 -260 -80 -462 -66 -677 10 -152 22 -233 55 -368 13 -55 29 -122 35
-150 15 -68 79 -225 140 -342 28 -53 50 -100 50 -105 0 -10 123 -191 155 -228
11 -14 33 -44 49 -66 15 -23 68 -83 117 -134 l90 -92 52 49 c29 27 735 732
1569 1567 l1517 1517 -82 79 c-88 85 -155 140 -168 140 -5 0 -18 9 -28 19 -11
11 -55 43 -98 72 -43 28 -90 60 -105 70 -15 11 -31 19 -36 19 -5 0 -53 23
-108 51 -125 64 -278 126 -358 143 -33 8 -104 24 -156 36 -207 47 -453 65
-664 49z m404 -297 c21 -8 5 -26 -194 -225 -120 -119 -223 -217 -231 -217 -7
0 -26 5 -42 12 -33 13 -28 12 -73 22 -19 5 -39 11 -45 14 -5 4 -14 7 -20 8
-84 18 -127 25 -159 30 -21 2 -43 7 -48 10 -5 3 -21 7 -36 9 -15 2 -83 11
-152 20 -69 9 -155 16 -192 16 -67 -2 -97 12 -56 25 13 4 25 10 28 13 15 20
110 72 182 100 46 18 92 37 103 42 97 44 299 100 415 115 30 3 84 10 120 14
78 10 368 4 400 -8z m397 -93 c15 -6 28 -9 29 -7 0 2 8 -3 17 -11 10 -7 17
-10 17 -6 0 4 11 0 25 -9 14 -9 25 -14 25 -10 0 3 11 -1 25 -10 13 -9 30 -16
37 -16 22 0 158 -68 158 -79 0 -5 16 -15 35 -21 19 -6 35 -16 35 -21 0 -5 5
-9 11 -9 10 0 126 -76 139 -91 3 -3 13 -9 24 -12 16 -6 14 -13 -25 -55 -53
-58 -183 -192 -357 -367 l-133 -134 -42 29 c-23 16 -56 41 -73 57 -64 57 -89
75 -159 112 -16 9 -37 23 -45 32 -8 9 -25 19 -37 23 -13 4 -23 12 -23 17 0 5
-3 8 -7 7 -8 -2 -54 21 -63 31 -3 3 -26 17 -52 31 -27 13 -48 28 -48 33 0 4
-4 5 -10 2 -5 -3 -10 1 -10 10 0 13 462 485 475 485 2 0 16 -5 32 -11z m-1532
-499 c119 -12 169 -19 235 -32 30 -6 61 -13 69 -14 44 -8 167 -37 173 -40 6
-4 -191 -208 -264 -272 l-26 -23 -198 195 -199 195 60 0 c33 0 101 -4 150 -9z
m-15 -577 c0 -18 -278 -294 -285 -282 -8 12 -42 134 -49 174 -2 17 -12 68 -20
115 -13 72 -36 309 -36 375 0 14 59 -39 195 -175 107 -107 195 -200 195 -207z
m902 338 c4 3 92 -42 98 -50 3 -4 40 -23 83 -44 42 -21 77 -42 77 -48 0 -5 7
-9 15 -9 8 0 15 -4 15 -10 0 -5 7 -10 15 -10 8 0 15 -4 15 -10 0 -5 7 -10 15
-10 9 0 18 -7 21 -15 4 -8 11 -15 17 -15 5 0 25 -16 44 -35 19 -19 38 -35 43
-35 5 0 16 -7 24 -16 15 -14 9 -23 -61 -100 -43 -46 -82 -84 -89 -84 -6 0 -39
-30 -74 -67 -35 -38 -110 -116 -166 -174 l-102 -106 -244 244 c-133 133 -238
243 -232 243 14 0 394 379 394 393 0 5 20 -3 45 -17 24 -15 46 -26 47 -25z
m-1548 -376 c8 -49 22 -134 31 -189 8 -54 18 -102 21 -107 2 -5 18 -52 34
-106 l29 -97 -52 -55 c-85 -92 -379 -381 -387 -381 -11 0 -21 141 -19 264 1
93 11 211 23 281 2 11 7 38 10 60 4 22 9 47 12 55 3 8 8 29 11 45 16 97 163
474 193 495 4 3 20 28 36 55 l29 50 7 -140 c4 -77 14 -180 22 -230z m1064
-377 c108 -105 217 -210 240 -233 l44 -42 -159 -156 c-359 -353 -361 -356
-378 -337 -8 9 -15 21 -15 27 0 5 -18 29 -40 54 -22 24 -40 49 -40 56 0 6 -4
13 -8 15 -16 6 -98 135 -121 188 -13 30 -27 57 -30 60 -12 9 -73 120 -66 120
4 0 0 12 -9 26 l-17 25 193 194 c106 107 197 194 201 195 5 0 97 -86 205 -192z
m-772 -511 c13 -16 24 -35 24 -43 0 -8 4 -14 9 -14 5 0 13 -10 17 -22 3 -12
11 -26 16 -32 18 -21 98 -148 98 -156 0 -4 7 -10 15 -14 8 -3 15 -12 15 -21 0
-8 5 -15 10 -15 6 0 13 -7 17 -17 4 -9 23 -32 43 -52 20 -20 44 -48 53 -63
l17 -28 -271 -271 c-219 -217 -274 -268 -281 -255 -5 9 -19 27 -31 40 -13 13
-29 37 -37 53 -8 15 -23 37 -32 47 -10 11 -21 29 -24 39 -4 11 -15 30 -25 41
-11 11 -19 26 -19 33 0 7 -4 13 -8 13 -10 0 -85 163 -87 190 0 3 -6 15 -13 28
-7 12 -10 22 -6 22 3 0 2 6 -3 13 -6 6 -16 29 -23 50 l-12 38 244 243 243 244
13 -31 c8 -17 25 -44 38 -60z"/>
        <path fill="#0f9b2e" d="M2337 2265 c-861 -861 -1561 -1565 -1556 -1565 6 0 48 -38 94 -85 46
-47 79 -83 72 -79 -7 4 -8 3 -4 -2 5 -5 12 -9 15 -9 15 0 51 -32 44 -39 -4 -4
-2 -7 3 -6 23 5 35 -2 74 -39 22 -21 42 -36 45 -33 3 3 8 -3 12 -12 3 -9 10
-13 15 -10 5 3 12 -2 15 -10 3 -9 10 -13 15 -10 5 3 12 -2 15 -10 3 -9 9 -14
14 -11 4 2 25 -9 46 -25 21 -16 45 -30 53 -30 20 0 171 -82 171 -93 0 -4 4 -6
9 -2 12 7 61 -15 61 -27 0 -5 4 -7 8 -4 4 2 51 -11 103 -31 51 -20 106 -35
122 -35 15 0 27 -3 27 -7 0 -3 8 -7 18 -7 20 -1 230 -44 252 -52 8 -3 19 -4
24 -3 4 1 54 -3 110 -10 55 -6 130 -10 166 -10 104 2 225 10 240 15 18 6 148
21 173 20 9 0 17 4 17 9 0 5 11 7 25 5 14 -3 25 -2 25 1 0 6 97 31 140 37 35
4 110 28 175 56 39 16 78 30 88 31 9 1 17 4 17 8 0 8 81 43 93 41 4 -1 7 3 7
9 0 5 5 7 10 4 6 -3 10 -1 10 6 0 7 3 10 6 7 3 -4 14 2 25 13 16 16 37 22 65
18 4 0 10 4 13 10 13 21 74 60 84 54 6 -3 7 -1 3 5 -7 11 7 17 29 12 5 -1 7 2
3 6 -5 4 14 22 40 39 26 18 54 40 61 49 7 9 19 16 26 16 6 0 20 9 30 20 10 11
23 17 29 13 6 -3 8 -3 4 2 -7 7 39 50 53 50 4 0 11 4 16 9 5 5 2 6 -6 1 -8 -4
5 11 27 34 72 74 125 124 117 110 -5 -8 -4 -11 1 -6 5 5 9 12 9 16 0 12 52 70
59 65 3 -2 4 -1 1 3 -3 3 5 17 17 30 12 13 18 23 13 23 -4 0 4 12 19 26 14 15
26 31 26 36 0 5 5 6 10 3 6 -4 9 -3 8 2 -4 12 62 113 74 113 5 0 7 4 3 9 -3 5
3 16 13 23 11 7 20 15 20 18 3 26 16 60 24 60 5 0 6 5 3 10 -3 6 -1 10 6 10 7
0 10 3 6 6 -8 9 31 84 44 84 6 0 7 5 4 10 -3 6 -1 10 5 10 6 0 9 4 5 9 -7 12
15 61 27 61 5 0 7 4 4 9 -7 11 34 111 45 111 5 0 6 7 3 15 -4 8 -1 15 5 15 6
0 8 7 5 15 -4 8 -2 15 2 15 5 0 10 15 11 33 4 57 14 97 24 97 6 0 8 4 4 9 -5
9 9 85 22 121 4 8 6 17 5 20 0 3 6 46 14 95 29 186 31 359 7 555 -9 74 -17
147 -17 163 -1 15 -4 27 -8 27 -5 0 -8 8 -8 18 0 10 -9 52 -20 93 -10 41 -21
94 -22 117 -2 23 -7 42 -12 42 -4 0 -6 7 -2 15 3 8 1 15 -5 15 -6 0 -9 7 -5
15 3 8 1 15 -5 15 -6 0 -7 5 -4 10 3 6 2 10 -3 10 -10 0 -55 112 -55 136 0 8
-4 14 -8 14 -11 0 -89 156 -91 184 -1 14 -6 26 -10 26 -12 0 -58 72 -52 82 3
4 1 8 -4 8 -5 0 -22 19 -37 43 -16 23 -38 52 -49 64 -12 12 -20 25 -18 28 1 3
-4 13 -13 21 -8 9 -12 21 -8 27 3 7 3 9 -2 5 -8 -7 -40 28 -40 44 0 3 -4 10
-9 15 -6 5 -6 2 -1 -7 5 -8 -27 22 -71 68 -44 45 -83 82 -86 82 -3 0 -710
-704 -1571 -1565z m1624 1062 c32 -49 56 -94 52 -100 -3 -7 -2 -9 2 -4 13 11
100 -139 109 -186 2 -14 9 -35 16 -46 6 -12 8 -21 5 -21 -4 0 1 -7 10 -16 9
-9 14 -23 11 -30 -3 -8 -2 -14 2 -14 5 0 16 -23 26 -50 l18 -51 -245 -244
c-219 -219 -273 -269 -252 -235 3 6 1 10 -5 10 -6 0 -8 5 -5 10 3 6 1 10 -5
10 -6 0 -9 4 -6 9 3 5 -1 11 -9 14 -18 8 -66 102 -57 112 4 5 2 5 -5 1 -7 -4
-14 3 -19 16 -4 13 -5 23 -3 23 2 0 -11 15 -29 33 -18 18 -30 37 -27 42 3 5 1
11 -5 15 -6 4 -7 11 -4 17 4 6 3 8 -3 5 -8 -5 -39 35 -42 55 -1 4 -17 23 -36
42 -18 19 -31 37 -28 40 4 3 1 6 -5 6 -14 0 -82 88 -82 106 0 8 120 133 266
279 221 219 269 263 281 253 8 -7 41 -52 74 -101z m-783 -680 c14 -23 25 -45
24 -49 -1 -5 4 -8 12 -8 19 0 47 -40 39 -54 -3 -6 -2 -8 2 -3 11 9 86 -103 78
-117 -3 -6 -2 -8 2 -3 9 7 57 -77 58 -100 0 -7 4 -13 8 -13 12 0 80 -130 74
-141 -4 -5 -2 -9 3 -9 5 0 14 -11 20 -24 10 -21 -4 -37 -189 -226 -109 -112
-201 -202 -203 -199 -23 21 -346 342 -407 405 l-80 81 257 256 c141 141 261
254 266 251 5 -3 21 -24 36 -47z m1109 -184 c-4 -3 -1 -13 6 -21 14 -18 18
-434 4 -467 -5 -11 -11 -42 -13 -70 -5 -67 -60 -279 -73 -283 -5 -2 -7 -10 -4
-18 3 -8 0 -14 -7 -14 -6 0 -9 -4 -5 -9 6 -10 -39 -131 -62 -167 -7 -11 -10
-24 -6 -27 3 -4 1 -7 -6 -7 -7 0 -9 -4 -6 -10 3 -5 2 -10 -4 -10 -6 0 -8 -7
-5 -15 4 -8 -1 -17 -10 -21 -9 -3 -13 -10 -10 -15 3 -5 0 -9 -5 -9 -6 0 -10
-3 -9 -7 5 -18 -14 -53 -28 -53 -8 0 -13 -4 -9 -10 3 -5 -3 -18 -14 -29 -11
-11 -17 -22 -15 -24 3 -3 0 -8 -6 -12 -7 -4 -11 6 -10 32 0 33 -4 85 -15 218
-2 17 -5 37 -8 45 -10 32 -45 251 -50 320 -1 14 -5 27 -8 30 -3 3 -21 52 -38
108 l-32 104 47 51 c65 70 396 397 402 397 3 0 2 -3 -1 -7z m-1564 -1152
c-108 -107 -202 -196 -211 -197 -18 -3 -82 27 -82 38 0 5 -4 6 -10 3 -5 -3
-10 -1 -10 5 0 6 -5 8 -10 5 -6 -3 -13 1 -16 9 -3 9 -10 13 -15 10 -5 -3 -9
-1 -9 4 0 5 -6 9 -12 9 -27 1 -147 63 -161 83 -7 11 -16 18 -19 15 -6 -6 -120
74 -169 120 -21 20 -39 33 -39 29 0 -4 -9 1 -20 11 -11 10 -19 23 -17 28 1 5
115 123 252 262 l250 252 247 -245 247 -246 -196 -195z m921 356 c15 -62 27
-117 25 -122 -1 -6 1 -17 4 -25 13 -33 28 -162 33 -295 l6 -140 -200 205 -200
204 25 30 c57 68 259 262 269 259 6 -2 23 -54 38 -116z m-319 -567 c229 -229
228 -208 10 -190 -143 13 -260 32 -412 67 l-111 26 150 149 c82 81 153 148
156 148 4 0 97 -90 207 -200z m-1569 150 c12 0 94 -80 94 -92 0 -5 4 -7 9 -3
5 3 17 -5 26 -17 8 -13 19 -22 23 -22 16 3 31 -9 25 -20 -3 -6 -3 -8 2 -4 4 4
20 -1 35 -12 16 -11 32 -20 37 -20 5 0 22 -12 39 -27 18 -16 38 -29 45 -31 8
-2 20 -10 27 -19 6 -9 12 -14 12 -10 0 4 14 1 30 -8 17 -9 30 -20 30 -25 0 -6
3 -9 8 -8 9 3 92 -40 92 -48 0 -14 -494 -497 -497 -486 -3 6 -8 10 -13 7 -9
-6 -100 24 -100 34 0 4 -8 7 -17 8 -47 3 -221 85 -230 108 -3 8 -9 12 -14 10
-4 -3 -17 3 -29 15 -11 11 -22 20 -25 20 -3 0 -10 0 -16 0 -5 0 -8 4 -5 8 3 5
0 9 -7 9 -17 0 -138 83 -144 99 -3 8 -9 11 -14 8 -5 -3 -9 -1 -9 4 0 5 122
132 271 281 251 252 272 271 288 257 10 -9 22 -16 27 -16z m850 -493 c8 3 14
0 14 -6 0 -6 7 -8 15 -5 8 4 15 1 15 -5 0 -6 7 -8 15 -5 8 4 15 1 15 -6 0 -6
4 -9 9 -6 5 3 46 -6 92 -19 45 -14 95 -25 111 -25 16 0 48 -5 71 -10 48 -12
224 -41 247 -41 8 0 66 -2 129 -5 l113 -6 -28 -18 c-15 -11 -33 -16 -38 -13
-6 3 -8 2 -3 -2 9 -11 -43 -46 -56 -38 -6 3 -7 2 -4 -4 6 -9 -90 -61 -123 -67
-8 -1 -26 -8 -38 -15 -13 -7 -26 -10 -29 -7 -3 3 -12 -2 -20 -10 -9 -8 -22
-13 -29 -10 -8 3 -14 2 -14 -3 0 -9 -89 -37 -102 -33 -5 1 -8 -2 -8 -7 0 -10
-128 -44 -140 -36 -4 3 -10 0 -12 -6 -2 -5 -21 -12 -43 -14 -22 -1 -47 -6 -55
-9 -59 -22 -411 -34 -535 -18 l-50 7 230 229 c126 126 231 224 233 218 2 -6
10 -8 18 -5z"/>
    </g>
</svg>
